<svg width="24" height="24" viewBox="0 0 24 24" fill="none" xmlns="http://www.w3.org/2000/svg">
<path fill-rule="evenodd" clip-rule="evenodd" d="M18.3479 8.14358C18.2402 9.60543 17.4452 10.9331 16.1998 11.7308C17.9364 12.5288 19.0336 14.262 18.9992 16.1528C18.8654 18.8733 16.5878 21.0087 13.829 21H6.30262C5.58428 20.998 5.00235 20.4237 5 19.7145V4.2866C5.00201 3.57716 5.58404 3.00253 6.30262 3.00054H13.1392C14.5269 2.98052 15.8636 3.51596 16.8449 4.48486C17.8262 5.45376 18.3683 6.77358 18.3479 8.14358ZM13.4646 17.786H8.90664V13.929H13.4646C14.5434 13.929 15.4179 14.7925 15.4179 15.8575C15.4179 16.9226 14.5434 17.786 13.4646 17.786ZM12.8133 6.21509H8.90664V10.0721H12.8133C13.8921 10.0721 14.7666 9.20866 14.7666 8.14358C14.7666 7.07851 13.8921 6.21509 12.8133 6.21509Z" fill="black"/>
</svg>
