<svg width="24" height="24" viewBox="0 0 24 24" fill="none" xmlns="http://www.w3.org/2000/svg">
<path d="M10 7C10 5.89543 10.8954 5 12 5C13.1046 5 14 5.89543 14 7C14 8.10457 13.1046 9 12 9C10.8954 9 10 8.10457 10 7Z" fill="black"/>
<path d="M13.5 17.5C13.5 18.3284 12.8284 19 12 19C11.1716 19 10.5 18.3284 10.5 17.5L10.5 12.5C10.5 11.6716 11.1716 11 12 11C12.8284 11 13.5 11.6716 13.5 12.5V17.5Z" fill="black"/>
<path fill-rule="evenodd" clip-rule="evenodd" d="M22 12C22 17.5228 17.5228 22 12 22C6.47715 22 2 17.5228 2 12C2 6.47715 6.47715 2 12 2C17.5228 2 22 6.47715 22 12ZM20 12C20 16.4183 16.4183 20 12 20C7.58172 20 4 16.4183 4 12C4 7.58172 7.58172 4 12 4C16.4183 4 20 7.58172 20 12Z" fill="black"/>
</svg>
